<?xml version="1.0" encoding="utf-8"?>
<!-- Generator: Adobe Illustrator 23.0.3, SVG Export Plug-In . SVG Version: 6.00 Build 0)  -->
<svg version="1.1" id="Layer_1" xmlns="http://www.w3.org/2000/svg" xmlns:xlink="http://www.w3.org/1999/xlink" x="0px" y="0px"
	 viewBox="0 0 536 536" style="enable-background:new 0 0 536 536;" xml:space="preserve">
<style type="text/css">
	.st0{fill:url(#SVGID_1_);}
	.st1{fill:url(#SVGID_2_);}
	.st2{fill:url(#SVGID_3_);}
</style>
<linearGradient id="SVGID_1_" gradientUnits="userSpaceOnUse" x1="41.227" y1="268.2499" x2="490.8911" y2="268.2499">
	<stop  offset="0.2261" style="stop-color:#281214"/>
	<stop  offset="1" style="stop-color:#E9213B"/>
</linearGradient>
<path class="st0" d="M428.4,53.6h-51.8V29.5c0-6.9-5.6-12.5-12.5-12.5c-6.9,0-12.5,5.6-12.5,12.5v24H180.5v-24
	c0-6.9-5.6-12.5-12.5-12.5c-6.9,0-12.5,5.6-12.5,12.5v24h-51.8c-34.5,0-62.4,28-62.5,62.5V457c0,34.5,28,62.4,62.5,62.5h324.8
	c34.5,0,62.4-28,62.5-62.5v-341C490.9,81.6,462.9,53.6,428.4,53.6z M103.7,78.6h51.8v24c0,6.9,5.6,12.5,12.5,12.5
	c6.9,0,12.5-5.6,12.5-12.5v-24h171v24c0,6.9,5.6,12.5,12.5,12.5s12.5-5.6,12.5-12.5v-24h52c20.7,0.1,37.4,16.8,37.5,37.5v30.7H66.2
	v-30.7C66.2,95.4,83,78.6,103.7,78.6z M428.4,494.6H103.7c-20.7-0.1-37.4-16.8-37.5-37.5V171.8h399.7v285.4
	C465.9,477.8,449.1,494.6,428.4,494.6z"/>
<linearGradient id="SVGID_2_" gradientUnits="userSpaceOnUse" x1="131.0395" y1="292.2929" x2="401.0864" y2="292.2929">
	<stop  offset="0.2261" style="stop-color:#281214"/>
	<stop  offset="1" style="stop-color:#E9213B"/>
</linearGradient>
<path class="st1" d="M388.6,279.8H143.5c-6.9,0-12.5,5.6-12.5,12.5c0,6.9,5.6,12.5,12.5,12.5h245.1c6.9,0,12.5-5.6,12.5-12.5
	C401.1,285.4,395.5,279.8,388.6,279.8z"/>
<linearGradient id="SVGID_3_" gradientUnits="userSpaceOnUse" x1="131.0395" y1="373.9843" x2="297.7895" y2="373.9843">
	<stop  offset="0.2261" style="stop-color:#281214"/>
	<stop  offset="1" style="stop-color:#E9213B"/>
</linearGradient>
<path class="st2" d="M285.3,361.5H143.5c-6.9,0-12.5,5.6-12.5,12.5s5.6,12.5,12.5,12.5h141.8c6.9,0,12.5-5.6,12.5-12.5
	S292.2,361.5,285.3,361.5z"/>
</svg>
